<?xml version="1.0" encoding="UTF-8"?>
<!DOCTYPE svg PUBLIC "-//W3C//DTD SVG 1.1//EN" "http://www.w3.org/Graphics/SVG/1.1/DTD/svg11.dtd">
<svg xmlns="http://www.w3.org/2000/svg" version="1.1" width="512px" height="512px" style="shape-rendering:geometricPrecision; text-rendering:geometricPrecision; image-rendering:optimizeQuality; fill-rule:evenodd; clip-rule:evenodd" xmlns:xlink="http://www.w3.org/1999/xlink">
<g><path style="opacity:0.989" fill="#000000" d="M 141.5,-0.5 C 247.5,-0.5 353.5,-0.5 459.5,-0.5C 475.027,4.19751 484.527,14.5308 488,30.5C 488.993,161.876 488.66,293.209 487,424.5C 482.761,438.405 473.594,447.238 459.5,451C 419.168,451.5 378.835,451.667 338.5,451.5C 338.666,461.172 338.5,470.839 338,480.5C 334.527,496.469 325.027,506.802 309.5,511.5C 223.5,511.5 137.5,511.5 51.5,511.5C 35.9726,506.802 26.4726,496.469 23,480.5C 22.3333,350.5 22.3333,220.5 23,90.5C 26.2857,74.547 35.7857,64.3803 51.5,60C 71.8306,59.5 92.1639,59.3334 112.5,59.5C 112.334,49.8276 112.5,40.1609 113,30.5C 116.473,14.5308 125.973,4.19751 141.5,-0.5 Z"/></g>
<g><path style="opacity:1" fill="#f5e6c7" d="M 144.5,14.5 C 228.167,14.3333 311.834,14.5 395.5,15C 403.502,17.0029 409.002,21.8362 412,29.5C 413.66,158.457 413.993,287.457 413,416.5C 411.387,426.78 405.553,433.28 395.5,436C 376.17,436.5 356.836,436.667 337.5,436.5C 337.5,431.5 337.5,426.5 337.5,421.5C 355.836,421.667 374.17,421.5 392.5,421C 394.492,420.426 395.992,419.259 397,417.5C 397.831,289.127 397.665,160.793 396.5,32.5C 395.335,31.4164 394.002,30.5831 392.5,30C 310.833,29.3333 229.167,29.3333 147.5,30C 146,30.8333 144.833,32 144,33.5C 143.5,42.1603 143.334,50.8269 143.5,59.5C 138.167,59.5 132.833,59.5 127.5,59.5C 127.105,49.4343 127.605,39.4343 129,29.5C 132.081,22.2514 137.247,17.2514 144.5,14.5 Z"/></g>
<g><path style="opacity:1" fill="#efd37e" d="M 420.5,15.5 C 432.538,15.3238 440.038,21.3238 443,33.5C 443.667,161.167 443.667,288.833 443,416.5C 440.707,429.133 433.207,435.633 420.5,436C 423.882,431.735 426.048,426.902 427,421.5C 427.667,290.833 427.667,160.167 427,29.5C 426.148,24.135 423.982,19.4683 420.5,15.5 Z"/></g>
<g><path style="opacity:1" fill="#efbf4e" d="M 450.5,15.5 C 462.538,15.3238 470.038,21.3238 473,33.5C 473.667,161.167 473.667,288.833 473,416.5C 470.719,429.119 463.219,435.619 450.5,436C 453.882,431.735 456.048,426.902 457,421.5C 457.667,290.833 457.667,160.167 457,29.5C 456.148,24.135 453.982,19.4683 450.5,15.5 Z"/></g>
<g><path style="opacity:1" fill="#fb613f" d="M 360.5,44.5 C 360.5,165.167 360.5,285.833 360.5,406.5C 352.833,406.5 345.167,406.5 337.5,406.5C 337.667,300.166 337.5,193.833 337,87.5C 331.929,71.4225 321.096,62.2558 304.5,60C 255.501,59.5 206.501,59.3333 157.5,59.5C 157.5,54.5 157.5,49.5 157.5,44.5C 225.167,44.5 292.833,44.5 360.5,44.5 Z"/></g>
<g><path style="opacity:1" fill="#f9402e" d="M 360.5,44.5 C 368.167,44.5 375.833,44.5 383.5,44.5C 383.5,165.167 383.5,285.833 383.5,406.5C 375.833,406.5 368.167,406.5 360.5,406.5C 360.5,285.833 360.5,165.167 360.5,44.5 Z"/></g>
<g><path style="opacity:1" fill="#fcf7ed" d="M 290.5,74.5 C 295.097,78.9423 298.263,84.2756 300,90.5C 300.667,220.5 300.667,350.5 300,480.5C 298.094,486.655 294.928,491.988 290.5,496.5C 211.833,496.667 133.166,496.5 54.5,496C 45.0021,492.839 39.5021,486.339 38,476.5C 37.3333,348.833 37.3333,221.167 38,93.5C 39.9579,84.2071 45.4579,78.0404 54.5,75C 133.166,74.5 211.833,74.3333 290.5,74.5 Z"/></g>
<g><path style="opacity:1" fill="#f9e9ca" d="M 290.5,74.5 C 301.127,72.4691 310.293,75.1358 318,82.5C 320.478,85.7892 322.144,89.4558 323,93.5C 323.667,221.167 323.667,348.833 323,476.5C 321.387,486.78 315.553,493.28 305.5,496C 300.511,496.499 295.511,496.666 290.5,496.5C 294.928,491.988 298.094,486.655 300,480.5C 300.667,350.5 300.667,220.5 300,90.5C 298.263,84.2756 295.097,78.9423 290.5,74.5 Z"/></g>
<g><path style="opacity:1" fill="#000000" d="M 90.5,359.5 C 140.5,359.5 190.5,359.5 240.5,359.5C 248.167,359.5 255.833,359.5 263.5,359.5C 263.5,284.5 263.5,209.5 263.5,134.5C 255.833,134.5 248.167,134.5 240.5,134.5C 192.833,134.5 145.167,134.5 97.5,134.5C 97.6667,203.167 97.5,271.834 97,340.5C 95.3994,342.719 93.2328,344.052 90.5,344.5C 87.7133,344.22 85.5466,342.887 84,340.5C 83.3333,268.167 83.3333,195.833 84,123.5C 84.8333,122 86,120.833 87.5,120C 149.167,119.333 210.833,119.333 272.5,120C 274.492,120.574 275.992,121.741 277,123.5C 277.667,231.5 277.667,339.5 277,447.5C 275.992,449.259 274.492,450.426 272.5,451C 210.833,451.667 149.167,451.667 87.5,451C 86,450.167 84.8333,449 84,447.5C 83.3333,419.5 83.3333,391.5 84,363.5C 85.5466,361.113 87.7133,359.78 90.5,359.5 Z"/></g>
<g><path style="opacity:1" fill="#61bcfb" d="M 240.5,134.5 C 240.5,139.5 240.5,144.5 240.5,149.5C 199.499,149.333 158.499,149.5 117.5,150C 116,150.833 114.833,152 114,153.5C 113.333,165.833 113.333,178.167 114,190.5C 114.833,192 116,193.167 117.5,194C 158.499,194.5 199.499,194.667 240.5,194.5C 240.83,211.342 240.497,228.008 239.5,244.5C 222.396,217.061 197.73,205.894 165.5,211C 132.938,220.555 115.605,242.221 113.5,276C 114.591,308.85 130.591,330.85 161.5,342C 190.406,348.569 214.573,340.736 234,318.5C 235.844,315.472 237.678,312.472 239.5,309.5C 240.497,325.992 240.83,342.658 240.5,359.5C 190.5,359.5 140.5,359.5 90.5,359.5C 90.5,354.5 90.5,349.5 90.5,344.5C 93.2328,344.052 95.3994,342.719 97,340.5C 97.5,271.834 97.6667,203.167 97.5,134.5C 145.167,134.5 192.833,134.5 240.5,134.5 Z"/></g>
<g><path style="opacity:1" fill="#41a7ed" d="M 240.5,134.5 C 248.167,134.5 255.833,134.5 263.5,134.5C 263.5,209.5 263.5,284.5 263.5,359.5C 255.833,359.5 248.167,359.5 240.5,359.5C 240.83,342.658 240.497,325.992 239.5,309.5C 250.106,287.801 250.106,266.134 239.5,244.5C 240.497,228.008 240.83,211.342 240.5,194.5C 243.233,194.052 245.399,192.719 247,190.5C 247.667,178.167 247.667,165.833 247,153.5C 245.399,151.281 243.233,149.948 240.5,149.5C 240.5,144.5 240.5,139.5 240.5,134.5 Z"/></g>
<g><path style="opacity:1" fill="#000000" d="M 240.5,149.5 C 243.233,149.948 245.399,151.281 247,153.5C 247.667,165.833 247.667,178.167 247,190.5C 245.399,192.719 243.233,194.052 240.5,194.5C 199.499,194.667 158.499,194.5 117.5,194C 116,193.167 114.833,192 114,190.5C 113.333,178.167 113.333,165.833 114,153.5C 114.833,152 116,150.833 117.5,150C 158.499,149.5 199.499,149.333 240.5,149.5 Z"/></g>
<g><path style="opacity:1" fill="#fd623f" d="M 210.5,164.5 C 210.5,169.5 210.5,174.5 210.5,179.5C 182.833,179.5 155.167,179.5 127.5,179.5C 127.5,174.5 127.5,169.5 127.5,164.5C 155.167,164.5 182.833,164.5 210.5,164.5 Z"/></g>
<g><path style="opacity:1" fill="#f9402e" d="M 210.5,164.5 C 218.167,164.5 225.833,164.5 233.5,164.5C 233.5,169.5 233.5,174.5 233.5,179.5C 225.833,179.5 218.167,179.5 210.5,179.5C 210.5,174.5 210.5,169.5 210.5,164.5 Z"/></g>
<g><path style="opacity:1" fill="#030303" d="M 239.5,244.5 C 250.106,266.134 250.106,287.801 239.5,309.5C 237.678,312.472 235.844,315.472 234,318.5C 214.573,340.736 190.406,348.569 161.5,342C 130.591,330.85 114.591,308.85 113.5,276C 115.605,242.221 132.938,220.555 165.5,211C 197.73,205.894 222.396,217.061 239.5,244.5 Z"/></g>
<g><path style="opacity:1" fill="#fbdd84" d="M 171.5,224.5 C 202.387,222.58 222.554,236.247 232,265.5C 235.628,299.189 221.128,320.356 188.5,329C 165.551,331.108 147.718,322.608 135,303.5C 121.716,275.473 127.216,251.973 151.5,233C 157.92,229.282 164.586,226.449 171.5,224.5 Z"/></g>
<g><path style="opacity:1" fill="#050402" d="M 174.5,239.5 C 196.363,239.479 206.03,250.479 203.5,272.5C 209.222,276.941 213.222,282.608 215.5,289.5C 210.571,303.261 200.905,311.428 186.5,314C 172.165,316 160.332,311.5 151,300.5C 148.637,297.107 146.804,293.44 145.5,289.5C 147.778,282.608 151.778,276.941 157.5,272.5C 155.065,257.031 160.731,246.031 174.5,239.5 Z"/></g>
<g><path style="opacity:1" fill="#f4c450" d="M 177.5,254.5 C 182.772,253.549 186.272,255.549 188,260.5C 188.333,266.833 188.667,273.167 189,279.5C 191.959,282.157 194.959,284.824 198,287.5C 198.92,290.308 198.087,292.475 195.5,294C 185.5,301.333 175.5,301.333 165.5,294C 162.913,292.475 162.08,290.308 163,287.5C 166,284.833 169,282.167 172,279.5C 172.333,272.833 172.667,266.167 173,259.5C 174.059,257.341 175.559,255.674 177.5,254.5 Z"/></g>
<g><path style="opacity:1" fill="#efd27e" d="M 97.5,374.5 C 102.833,374.5 108.167,374.5 113.5,374.5C 113.5,385.167 113.5,395.833 113.5,406.5C 108.167,406.5 102.833,406.5 97.5,406.5C 97.5,395.833 97.5,385.167 97.5,374.5 Z"/></g>
<g><path style="opacity:1" fill="#fd623f" d="M 210.5,374.5 C 210.5,385.167 210.5,395.833 210.5,406.5C 182.833,406.5 155.167,406.5 127.5,406.5C 127.5,395.833 127.5,385.167 127.5,374.5C 155.167,374.5 182.833,374.5 210.5,374.5 Z"/></g>
<g><path style="opacity:1" fill="#f9402e" d="M 210.5,374.5 C 218.167,374.5 225.833,374.5 233.5,374.5C 233.5,385.167 233.5,395.833 233.5,406.5C 225.833,406.5 218.167,406.5 210.5,406.5C 210.5,395.833 210.5,385.167 210.5,374.5 Z"/></g>
<g><path style="opacity:1" fill="#efbf4e" d="M 247.5,374.5 C 252.833,374.5 258.167,374.5 263.5,374.5C 263.5,385.167 263.5,395.833 263.5,406.5C 258.167,406.5 252.833,406.5 247.5,406.5C 247.5,395.833 247.5,385.167 247.5,374.5 Z"/></g>
<g><path style="opacity:1" fill="#b7e6fe" d="M 240.5,421.5 C 240.5,426.5 240.5,431.5 240.5,436.5C 192.833,436.5 145.167,436.5 97.5,436.5C 97.5,431.5 97.5,426.5 97.5,421.5C 145.167,421.5 192.833,421.5 240.5,421.5 Z"/></g>
<g><path style="opacity:1" fill="#90cff9" d="M 240.5,421.5 C 248.167,421.5 255.833,421.5 263.5,421.5C 263.5,426.5 263.5,431.5 263.5,436.5C 255.833,436.5 248.167,436.5 240.5,436.5C 240.5,431.5 240.5,426.5 240.5,421.5 Z"/></g>
</svg>
